<svg version="1.1" id="Layer_1" xmlns="http://www.w3.org/2000/svg" xmlns:xlink="http://www.w3.org/1999/xlink" x="0px" y="0px" width="100%" viewBox="0 0 1892 696" enable-background="new 0 0 1892 696" xml:space="preserve">

<path fill="#010101" opacity="1.000000" stroke="none" d="
M484.294830,343.690735 
	C535.208679,370.251526 551.303101,435.831726 518.157471,480.637878 
	C506.315094,496.646301 489.750427,505.942017 471.657379,512.915222 
	C446.544556,522.593994 420.284851,526.953369 393.569458,527.816895 
	C365.429932,528.726562 337.251526,528.592957 309.089783,528.625671 
	C230.760086,528.716553 152.430191,528.657227 74.100380,528.657227 
	C72.142281,528.657227 70.184189,528.657288 68.017029,528.657288 
	C68.017029,399.579224 68.017029,271.002319 68.017029,142.006622 
	C69.484741,142.006622 70.776993,142.006516 72.069244,142.006653 
	C173.397995,142.017700 274.727020,141.904724 376.055328,142.118347 
	C404.981079,142.179337 433.567566,145.358444 460.792999,156.057831 
	C478.313446,162.943253 493.832062,172.659195 503.887604,189.232468 
	C516.110535,209.377853 518.320129,231.362488 513.336365,253.793121 
	C505.678833,288.257416 483.005341,308.980103 449.864380,318.820709 
	C440.036652,321.738861 429.844696,323.430450 419.578949,325.738190 
	C442.108856,328.186554 463.912415,332.738983 484.294830,343.690735 
M167.043625,404.500000 
	C167.043625,421.569489 167.043625,438.638947 167.043625,455.690247 
	C233.002869,455.690247 298.153076,455.821777 363.301910,455.583405 
	C376.950348,455.533508 390.513672,453.745911 403.589203,449.253937 
	C426.622162,441.341125 436.968903,421.404572 430.254608,397.812744 
	C425.992889,382.838470 414.965851,374.979004 401.233734,370.053070 
	C382.290833,363.257935 362.512451,362.114502 342.647766,362.085541 
	C285.656891,362.002441 228.665787,362.054199 171.674774,362.064240 
	C170.231003,362.064484 168.787262,362.195984 167.043625,362.280823 
	C167.043625,376.232208 167.043625,389.866089 167.043625,404.500000 
M279.500153,214.250259 
	C242.094940,214.250259 204.689728,214.250259 167.418945,214.250259 
	C167.418945,243.115051 167.418945,271.321594 167.418945,299.754150 
	C179.103317,299.754150 190.412186,299.761230 201.721054,299.752899 
	C251.683121,299.716095 301.645844,299.809723 351.606842,299.555725 
	C367.273682,299.476074 382.884918,298.055084 397.543243,291.735413 
	C413.393585,284.901825 421.697327,272.139740 421.402161,255.404724 
	C421.087708,237.573044 413.287903,225.948730 396.221863,219.812241 
	C389.121918,217.259293 381.393341,215.354385 373.903168,215.178787 
	C342.778717,214.449158 311.636108,214.491333 279.500153,214.250259 
z" data-index="1" style="opacity: 1;"></path>
<path fill="#010101" opacity="1.000000" stroke="none" d="
M687.174072,525.733582 
	C686.261841,527.023987 685.353271,528.548828 684.438843,528.552307 
	C652.470703,528.675232 620.502014,528.654968 588.238770,528.654968 
	C588.238770,399.728729 588.238770,271.156097 588.238770,142.257706 
	C589.409363,142.178650 590.682495,142.017471 591.955627,142.017426 
	C681.619812,142.014236 771.284302,141.897537 860.947998,142.101349 
	C892.170166,142.172318 923.183044,144.796555 953.236633,154.065384 
	C971.309204,159.639145 988.430847,167.381393 1003.154175,179.475891 
	C1027.734619,199.667450 1038.524658,226.204025 1038.205811,257.662018 
	C1037.767700,300.887909 1015.548706,329.530487 977.494873,346.891724 
	C965.197876,352.502014 951.930725,355.985840 939.731812,360.225372 
	C940.909668,360.560120 943.260437,361.158783 945.566589,361.896942 
	C952.046936,363.971130 958.625366,365.803284 964.957031,368.265778 
	C987.656555,377.093903 1001.059631,394.570038 1007.785706,417.117004 
	C1013.813232,437.322510 1017.906799,458.101837 1023.825562,478.343781 
	C1028.566650,494.558228 1034.765503,510.346436 1040.318848,526.323242 
	C1040.520996,526.904724 1040.739502,527.480530 1041.168335,528.657166 
	C1039.285767,528.657166 1037.864624,528.657166 1036.443604,528.657166 
	C1005.444458,528.657166 974.444336,528.543701 943.447205,528.791748 
	C939.280090,528.825073 937.268738,527.375244 936.238220,523.825562 
	C930.826050,505.181305 925.378235,486.546631 920.122009,467.858246 
	C918.233337,461.142822 916.467224,454.350983 915.296631,447.483032 
	C911.249878,423.739502 896.477966,410.427002 873.719604,406.274689 
	C858.228088,403.448151 842.359802,401.598267 826.630249,401.370758 
	C781.140808,400.712799 735.636353,401.095184 690.137756,401.077179 
	C689.332764,401.076874 688.527832,401.176880 687.175049,401.266235 
	C687.175049,442.711090 687.175049,483.984863 687.174072,525.733582 
M687.172668,315.497467 
	C687.172668,320.926117 687.172668,326.354736 687.172668,331.629639 
	C688.192261,331.823181 688.516418,331.938782 688.840515,331.938568 
	C744.477295,331.901489 800.115845,332.088257 855.749878,331.673828 
	C873.105713,331.544525 890.139038,328.448029 906.137024,321.015961 
	C928.165955,310.782257 939.458313,292.052032 938.284668,267.329437 
	C937.203613,244.557816 925.009766,228.982376 901.748169,220.901154 
	C884.981018,215.076111 867.500854,214.332520 850.006042,214.294266 
	C797.533997,214.179596 745.061523,214.252533 692.589233,214.252258 
	C690.845703,214.252258 689.102173,214.252258 687.172668,214.252258 
	C687.172668,248.211426 687.172668,281.354828 687.172668,315.497467 
z" data-index="2" style="opacity: 1;"></path>
<path fill="#010101" opacity="1.000000" stroke="none" d="
M1725.275391,284.279297 
	C1707.960571,304.783112 1690.879517,325.018860 1673.410522,345.714355 
	C1731.925293,410.632599 1790.404663,475.511566 1849.667480,541.259827 
	C1847.292847,541.259827 1845.901123,541.259888 1844.509521,541.259888 
	C1805.015625,541.259888 1765.521606,541.222290 1726.028076,541.331665 
	C1722.890747,541.340332 1720.906006,540.412354 1718.899292,537.988892 
	C1677.363770,487.823608 1635.731567,437.738586 1594.139282,387.620300 
	C1592.465820,385.603790 1590.998047,383.416656 1589.393066,381.253265 
	C1567.581665,407.527649 1545.783936,433.790070 1523.981323,460.048462 
	C1502.381226,486.062988 1480.806885,512.099243 1459.097534,538.022400 
	C1457.800171,539.571777 1455.409180,541.116699 1453.520142,541.124939 
	C1413.027222,541.301331 1372.533325,541.258423 1332.039551,541.250427 
	C1331.440186,541.250305 1330.840820,541.153870 1329.306641,541.022095 
	C1388.244995,475.637207 1446.630493,410.865723 1505.355957,345.716949 
	C1451.632690,282.305359 1397.982422,218.980087 1343.649170,154.848618 
	C1345.960449,154.848618 1347.367188,154.848618 1348.774048,154.848618 
	C1388.267944,154.848618 1427.761963,154.885986 1467.255493,154.777252 
	C1470.398560,154.768600 1472.332153,155.667480 1474.267578,158.204559 
	C1510.625122,205.860748 1547.094727,253.431412 1583.523560,301.033295 
	C1585.418457,303.509369 1587.157837,306.104401 1588.926025,308.583130 
	C1627.321655,258.662445 1665.585205,208.988235 1703.693481,159.195175 
	C1706.197021,155.924103 1708.671997,154.734161 1712.752319,154.751450 
	C1751.245728,154.914795 1789.740112,154.848587 1828.234131,154.848602 
	C1830.010132,154.848602 1831.786255,154.848602 1834.593262,154.848602 
	C1797.824341,198.385269 1761.666748,241.198242 1725.275391,284.279297 
z" data-index="3"></path>
<path fill="#010101" opacity="1.000000" stroke="none" d="
M1099.999634,422.000000 
	C1099.999634,332.356873 1099.999634,243.213776 1099.999634,153.587021 
	C1101.563965,153.492416 1102.979492,153.332321 1104.395020,153.331970 
	C1155.884766,153.319061 1207.374634,153.283066 1258.863892,153.445862 
	C1261.160156,153.453125 1264.003052,154.727905 1265.654297,156.360184 
	C1276.436523,167.018555 1287.008057,177.892670 1297.493042,188.844986 
	C1298.532104,189.930283 1298.669067,191.990784 1298.959473,193.645233 
	C1299.186523,194.938126 1299.000488,196.303268 1299.000488,197.636337 
	C1299.000244,310.780518 1299.000244,423.924713 1299.000244,537.068909 
	C1299.000244,538.873230 1299.000366,540.677551 1299.000366,543.000488 
	C1297.297729,543.000488 1295.859497,543.000488 1294.421387,543.000488 
	C1243.764771,543.000488 1193.108154,542.970703 1142.451660,543.066589 
	C1139.020752,543.073059 1136.546387,542.148071 1134.151978,539.643372 
	C1123.790405,528.804077 1113.152100,518.228577 1102.852661,507.331787 
	C1101.264648,505.651550 1100.136475,502.802124 1100.119507,500.483734 
	C1099.929810,474.490265 1099.999634,448.494873 1099.999634,422.000000 
M1226.500122,213.235306 
	C1204.096680,213.235306 1181.693237,213.235306 1159.431641,213.235306 
	C1159.431641,316.436035 1159.431641,418.813904 1159.431641,521.379883 
	C1199.686279,521.379883 1239.606323,521.379883 1279.683960,521.379883 
	C1279.683960,418.628937 1279.683960,316.109467 1279.683960,213.235306 
	C1262.093018,213.235306 1244.796631,213.235306 1226.500122,213.235306 
z" data-index="4" style="opacity: 1;"></path>

<path fill="#FDFDFD" opacity="1.000000" stroke="none" d="
M280.000183,214.250275 
	C311.636108,214.491333 342.778717,214.449158 373.903168,215.178787 
	C381.393341,215.354385 389.121918,217.259293 396.221863,219.812241 
	C413.287903,225.948730 421.087708,237.573044 421.402161,255.404724 
	C421.697327,272.139740 413.393585,284.901825 397.543243,291.735413 
	C382.884918,298.055084 367.273682,299.476074 351.606842,299.555725 
	C301.645844,299.809723 251.683121,299.716095 201.721054,299.752899 
	C190.412186,299.761230 179.103317,299.754150 167.418945,299.754150 
	C167.418945,271.321594 167.418945,243.115051 167.418945,214.250259 
	C204.689728,214.250259 242.094940,214.250259 280.000183,214.250275 
z" data-index="6" style="opacity: 1; visibility: hidden;"></path>

<path fill="#FEFEFE" opacity="1.000000" stroke="none" d="
M1227.000244,213.235306 
	C1244.796631,213.235306 1262.093018,213.235306 1279.683960,213.235306 
	C1279.683960,316.109467 1279.683960,418.628937 1279.683960,521.379883 
	C1239.606323,521.379883 1199.686279,521.379883 1159.431641,521.379883 
	C1159.431641,418.813904 1159.431641,316.436035 1159.431641,213.235306 
	C1181.693237,213.235306 1204.096680,213.235306 1227.000244,213.235306 
z" data-index="8" style="opacity: 1; visibility: hidden;"></path>
</svg>